<?xml version="1.0" standalone="no"?>
<!DOCTYPE svg PUBLIC "-//W3C//DTD SVG 20010904//EN"
 "http://www.w3.org/TR/2001/REC-SVG-20010904/DTD/svg10.dtd">
<svg version="1.0" xmlns="http://www.w3.org/2000/svg"
 width="1000.000000pt" height="1061.000000pt" viewBox="0 0 1000.000000 1061.000000"
 preserveAspectRatio="xMidYMid meet">

<g transform="translate(0.000000,1061.000000) scale(0.100000,-0.100000)"
fill="#000000" stroke="none">
<path d="M4115 9950 c-71 -26 -216 -70 -230 -70 -6 0 -19 -6 -29 -13 -15 -11
-16 -18 -8 -33 6 -10 23 -59 37 -109 15 -49 38 -126 51 -170 14 -44 39 -127
55 -185 17 -58 39 -130 49 -160 11 -30 33 -107 50 -170 17 -63 35 -128 40
-145 5 -16 25 -88 45 -160 20 -71 41 -146 47 -165 5 -19 12 -47 15 -63 3 -15
9 -29 13 -32 11 -7 162 13 172 23 4 4 1 21 -7 37 -32 71 -70 189 -125 393 -65
236 -101 682 -77 950 l9 92 -29 -1 c-15 -1 -50 -9 -78 -19z"/>
<path d="M5500 9901 c0 -10 8 -45 18 -77 50 -158 72 -454 72 -967 l0 -397 58
0 c32 0 62 4 68 9 5 6 34 11 64 13 57 3 62 9 49 57 -3 13 21 15 151 15 149 1
157 2 212 29 112 55 206 166 251 295 27 78 28 254 2 330 -52 155 -174 259
-361 311 -81 22 -264 9 -298 -21 -6 -4 -20 -8 -33 -8 -20 0 -23 5 -23 43 0 74
27 260 45 307 32 89 46 80 -124 80 -141 0 -151 -1 -151 -19z m610 -534 c37
-20 52 -38 83 -98 31 -63 38 -85 39 -144 6 -218 -65 -408 -169 -451 -77 -33
-194 6 -246 82 -62 89 -82 244 -51 398 25 125 65 191 139 231 44 24 147 15
205 -18z"/>
<path d="M3235 9640 c-75 -20 -80 -22 -170 -66 -62 -30 -171 -107 -216 -153
-74 -74 -157 -242 -185 -371 -11 -52 -11 -219 -1 -265 20 -85 81 -223 130
-295 129 -186 348 -290 549 -259 40 6 82 14 93 19 11 4 42 16 68 25 27 10 81
39 121 66 117 78 205 193 261 343 36 96 34 111 -22 146 -26 17 -52 30 -59 30
-6 0 -25 -12 -41 -27 -25 -23 -34 -48 -57 -141 -55 -232 -106 -289 -275 -313
-72 -11 -159 8 -221 46 -90 57 -203 219 -239 345 -7 25 -18 58 -24 75 -6 16
-11 83 -11 150 0 134 20 210 76 293 46 67 147 152 181 152 8 0 29 8 48 18 48
24 220 29 271 8 65 -28 116 -122 105 -194 -8 -45 -52 -92 -88 -92 -21 0 -31 8
-46 37 -11 20 -31 46 -46 56 -25 19 -28 19 -84 4 -32 -9 -66 -26 -75 -38 -42
-51 -5 -128 82 -171 58 -29 94 -34 132 -19 13 5 41 14 63 21 107 35 205 176
205 296 0 128 -53 219 -157 266 -58 26 -71 28 -180 27 -81 -1 -140 -7 -188
-19z"/>
<path d="M5065 9551 c-22 -3 -40 -10 -40 -16 0 -5 13 -37 28 -69 103 -218 143
-456 97 -579 -41 -108 -151 -158 -276 -125 -48 13 -104 60 -128 106 -40 81
-44 233 -11 506 8 66 12 123 9 128 -7 11 -90 10 -112 -1 -9 -5 -56 -15 -103
-21 -111 -15 -117 -19 -97 -62 34 -72 52 -148 88 -373 26 -154 79 -264 170
-348 80 -75 149 -100 250 -95 80 5 175 43 214 87 11 12 24 21 31 21 13 0 35
-42 35 -65 0 -8 8 -18 17 -24 18 -10 123 -3 136 9 5 4 3 43 -3 86 -32 227 -40
455 -28 774 l3 65 -120 1 c-66 1 -138 -1 -160 -5z"/>
<path d="M1720 9168 c-63 -46 -254 -200 -262 -212 -4 -6 2 -22 13 -36 10 -14
71 -97 135 -185 64 -88 131 -179 148 -202 17 -23 54 -75 82 -115 28 -40 105
-149 171 -243 66 -93 161 -231 212 -306 50 -75 97 -141 104 -147 10 -9 28 -2
74 26 104 64 101 54 30 141 -102 123 -198 261 -279 401 -55 94 -158 293 -158
305 0 3 -11 30 -24 58 -13 29 -40 99 -61 157 -20 58 -41 114 -46 125 -9 23
-43 138 -62 209 -7 27 -17 51 -22 53 -6 2 -31 -11 -55 -29z"/>
<path d="M7933 9153 c-6 -16 -20 -62 -33 -103 -31 -103 -60 -170 -75 -170 -6
0 -33 22 -58 50 -52 56 -175 140 -206 140 -11 0 -22 4 -25 9 -13 20 -177 37
-225 23 -20 -6 -55 -16 -78 -22 -93 -28 -190 -130 -238 -253 -25 -62 -28 -83
-27 -181 0 -93 4 -122 26 -178 28 -77 29 -78 76 -139 77 -101 201 -166 338
-176 71 -6 73 -7 70 -31 -2 -14 3 -28 12 -33 34 -20 167 -78 193 -84 24 -6 27
-4 27 16 0 34 38 188 54 224 8 17 24 55 36 85 47 118 168 320 333 550 53 74
97 140 97 146 0 5 -19 20 -42 33 -24 12 -84 45 -135 72 -50 27 -95 49 -101 49
-5 0 -14 -12 -19 -27z m-399 -203 c77 -37 108 -76 131 -165 14 -53 14 -66 -1
-139 -36 -179 -114 -314 -211 -365 -30 -15 -97 -14 -136 3 -38 16 -93 69 -114
110 -38 73 -24 244 30 374 44 102 69 137 125 173 56 35 113 38 176 9z"/>
<path d="M1000 8629 c-69 -61 -176 -156 -239 -212 -134 -120 -140 -125 -225
-197 -37 -31 -64 -62 -63 -71 1 -9 77 -94 168 -190 338 -354 495 -560 615
-806 32 -67 62 -121 66 -120 3 1 102 95 220 208 233 226 352 333 441 398 47
34 57 46 52 62 -14 44 -96 199 -105 199 -5 0 -22 -19 -39 -42 -75 -108 -437
-448 -475 -448 -26 0 -201 176 -255 256 -22 34 -41 73 -41 87 0 53 153 209
265 272 36 20 65 41 65 47 0 14 -101 148 -111 148 -4 0 -31 -27 -61 -59 -72
-80 -160 -152 -236 -191 -83 -43 -75 -49 -191 163 -25 45 -29 61 -21 76 16 32
82 84 368 294 29 21 52 42 50 45 -5 12 -81 147 -95 170 -7 12 -17 22 -21 22
-4 0 -63 -50 -132 -111z"/>
<path d="M8345 8580 c-28 -9 -66 -25 -85 -35 -42 -20 -126 -100 -145 -135 -25
-47 -55 -153 -71 -249 -14 -87 -14 -104 0 -177 29 -156 101 -261 236 -349 85
-56 129 -68 226 -64 70 4 87 8 138 39 145 87 154 230 21 331 -68 52 -107 63
-162 48 -136 -37 -120 -185 27 -248 27 -12 50 -25 50 -30 0 -18 -41 -43 -77
-48 -54 -7 -110 11 -173 54 -127 89 -153 231 -79 427 20 56 22 57 52 50 18 -3
37 -10 42 -13 6 -4 26 -14 45 -21 36 -13 171 -74 203 -91 10 -6 46 -23 80 -40
34 -17 70 -35 80 -40 89 -49 99 -52 108 -38 41 65 57 235 30 319 -35 107 -128
216 -230 268 -118 60 -223 74 -316 42z m282 -180 c86 -41 133 -120 133 -222 0
-93 -27 -108 -107 -59 -27 16 -104 58 -173 94 -88 46 -126 72 -128 86 -7 43
116 119 194 120 22 1 59 -8 81 -19z"/>
<path d="M4625 8054 c-303 -28 -740 -129 -872 -202 -12 -7 -27 -12 -33 -12 -7
0 -26 -6 -43 -14 -18 -8 -61 -27 -97 -41 -71 -29 -152 -67 -160 -76 -3 -3 -27
-17 -55 -31 -27 -14 -82 -45 -122 -69 -39 -24 -105 -64 -145 -88 -73 -45 -252
-179 -308 -231 -8 -8 -40 -35 -70 -60 -70 -58 -295 -282 -386 -385 -167 -188
-367 -481 -469 -685 -26 -52 -50 -99 -55 -105 -4 -5 -13 -28 -20 -50 -7 -22
-23 -60 -36 -85 -50 -96 -103 -256 -159 -480 -18 -74 -35 -142 -38 -150 -3 -8
-10 -55 -17 -105 -7 -49 -16 -99 -20 -110 -24 -58 -35 -690 -16 -917 l9 -108
-29 -5 c-16 -4 -346 -7 -734 -8 l-705 -2 0 -1095 0 -1095 1365 -5 1365 -5 50
-28 c27 -15 53 -34 58 -42 4 -8 14 -15 21 -15 8 0 19 -6 25 -14 16 -19 258
-181 296 -197 17 -8 32 -16 35 -19 7 -7 54 -33 130 -71 36 -18 81 -42 100 -54
19 -12 48 -25 65 -29 16 -4 50 -17 75 -28 134 -62 170 -76 201 -83 19 -4 39
-11 44 -15 6 -4 42 -15 80 -24 39 -10 77 -21 85 -25 9 -5 31 -12 50 -16 19 -4
41 -11 50 -16 15 -8 72 -20 195 -40 33 -6 74 -15 91 -20 45 -13 213 -28 324
-29 52 0 122 -5 155 -10 96 -16 627 25 775 61 25 5 77 17 115 24 39 8 88 21
110 29 22 8 52 15 67 16 15 0 29 4 32 9 3 5 29 15 57 21 29 7 64 19 78 26 14
8 36 14 48 14 12 0 24 4 27 9 3 5 18 12 33 16 16 3 44 14 63 22 98 43 120 54
180 82 36 17 85 42 109 56 24 13 56 29 70 34 28 12 30 13 139 84 41 26 75 47
77 47 2 0 21 11 42 25 21 14 46 31 57 38 10 6 49 35 85 62 37 28 83 61 102 75
l34 25 1371 3 c1159 2 1374 4 1383 16 16 19 16 2153 0 2172 -8 10 -155 13
-736 13 -432 0 -729 3 -735 9 -6 6 -3 72 6 172 49 511 -14 1045 -177 1505 -55
155 -70 193 -118 293 -28 57 -55 114 -60 126 -13 30 -66 124 -93 166 -13 19
-40 64 -61 100 -21 36 -53 84 -72 107 -18 23 -33 46 -33 51 0 6 -4 12 -8 14
-7 3 -47 55 -130 170 -57 79 -349 380 -469 484 -26 23 -71 62 -100 87 -28 25
-61 48 -72 52 -12 3 -21 10 -21 14 0 5 -28 27 -62 50 -89 62 -122 85 -128 91
-3 3 -18 13 -35 22 -103 58 -145 83 -145 90 0 3 -13 9 -30 13 -16 4 -32 11
-36 16 -3 5 -36 23 -72 40 -37 17 -83 39 -103 50 -43 22 -180 79 -192 79 -5 0
-23 6 -40 14 -83 35 -148 57 -183 63 -22 3 -43 9 -49 13 -22 17 -243 66 -435
97 -268 42 -657 54 -945 27z m820 -417 c111 -18 149 -26 275 -55 121 -28 173
-42 190 -51 9 -5 31 -12 50 -16 33 -7 92 -29 167 -61 17 -8 37 -14 45 -14 18
0 394 -189 449 -226 24 -17 80 -54 124 -83 239 -160 481 -380 650 -590 28 -35
65 -81 82 -103 18 -21 62 -85 99 -141 37 -56 77 -118 90 -137 38 -58 128 -232
159 -306 16 -38 32 -74 37 -80 5 -6 27 -63 49 -125 173 -482 226 -905 178
-1427 -6 -68 -18 -131 -29 -158 l-20 -45 -1817 3 c-1736 3 -1820 4 -1855 21
-20 10 -48 35 -62 55 -14 20 -35 43 -46 50 -20 12 -60 69 -60 85 0 11 58 9 65
-3 3 -5 21 -10 38 -10 22 0 49 -13 86 -40 84 -63 84 -57 6 76 -26 44 -15 68
27 59 42 -9 148 -50 217 -83 47 -23 65 -26 147 -26 52 1 99 6 106 11 7 6 30
13 50 16 20 3 52 12 70 21 18 8 49 18 68 22 19 3 41 10 50 15 27 15 313 110
395 131 44 11 114 26 155 33 41 8 93 18 115 24 52 12 194 24 320 26 124 2 220
23 308 69 135 69 209 143 308 308 53 87 59 113 32 134 -20 15 -89 19 -97 5 -4
-5 -24 -12 -45 -16 -22 -4 -45 -13 -52 -21 -6 -8 -17 -14 -23 -14 -6 0 -27 -8
-46 -18 -31 -17 -206 -68 -343 -101 -61 -14 -583 -15 -592 -1 -3 6 -16 10 -29
10 -60 0 -386 149 -386 177 0 7 19 25 43 39 81 51 117 99 117 156 0 38 -18 44
-96 29 -58 -10 -72 -9 -130 9 -89 27 -203 27 -306 -2 -95 -26 -106 -20 -84 43
9 24 16 50 16 57 0 26 41 102 72 134 17 17 63 52 102 78 73 48 126 95 154 138
28 43 88 73 140 71 43 -2 92 8 147 30 11 5 54 21 95 37 41 15 79 31 85 36 5 4
15 8 23 8 8 0 27 11 42 24 16 13 46 26 68 29 22 4 45 14 52 22 7 8 21 15 31
15 10 0 21 5 24 11 4 5 17 15 28 20 12 6 36 18 52 27 17 10 57 33 90 51 33 19
81 51 107 73 26 21 60 43 76 49 16 5 39 27 53 50 45 76 59 89 90 89 19 0 40
11 61 30 17 17 39 30 49 30 16 0 89 74 89 91 0 4 19 14 42 24 40 16 48 16 137
-1 91 -17 94 -17 107 1 18 24 18 26 -6 170 -29 175 -37 210 -59 254 -36 69
-97 100 -251 127 -52 9 -129 23 -170 31 -170 32 -208 37 -270 36 -59 -1 -135
-22 -225 -63 -60 -27 -247 -75 -445 -114 -124 -25 -239 -50 -255 -56 -58 -23
-212 -51 -325 -60 -63 -6 -149 -17 -190 -27 -59 -13 -119 -16 -286 -15 -192 2
-214 0 -249 -18 -48 -24 -110 -26 -150 -3 -18 10 -54 17 -90 17 -53 1 -67 -3
-115 -35 -75 -49 -101 -57 -202 -62 -53 -2 -93 -9 -103 -17 -25 -21 -41 -69
-48 -145 -5 -64 -15 -88 -115 -285 -60 -118 -121 -248 -136 -288 -79 -222
-166 -319 -324 -362 -46 -12 -82 -41 -82 -65 0 -16 19 -21 90 -28 25 -2 66
-14 90 -26 103 -49 165 -87 168 -104 4 -19 -37 -40 -123 -63 -27 -7 -78 -21
-112 -30 -109 -29 -176 -113 -137 -172 14 -21 21 -23 62 -18 116 16 243 4 292
-26 40 -26 16 -86 -49 -122 -11 -6 -56 -32 -101 -58 -44 -27 -83 -48 -88 -48
-5 0 -28 -14 -50 -30 -80 -58 -55 -85 136 -146 136 -44 192 -74 192 -103 0
-23 -58 -74 -114 -100 -33 -15 -69 -37 -78 -48 -16 -18 -16 -21 -2 -42 21 -29
47 -38 144 -50 94 -12 147 -35 130 -56 -6 -7 -27 -21 -46 -30 -46 -22 -42 -47
11 -61 22 -6 47 -13 55 -17 8 -4 33 -13 55 -20 63 -22 57 -61 -11 -79 -21 -5
-66 -17 -99 -26 -51 -14 -138 -17 -560 -19 -275 -2 -510 -1 -522 2 -28 7 -38
44 -54 190 -35 341 -12 733 62 1050 24 103 127 430 145 460 6 11 33 71 59 132
26 62 69 150 96 194 27 45 49 84 49 86 0 2 12 22 27 46 15 23 32 49 38 58 37
59 74 112 114 164 25 33 51 65 56 73 116 151 350 384 511 507 32 25 68 52 79
60 53 41 117 86 191 132 90 57 355 197 412 217 20 8 63 25 94 40 31 14 62 26
68 26 7 0 24 6 38 14 66 35 413 124 579 148 170 24 209 26 508 23 230 -1 336
-6 410 -18z m-1020 -1127 c3 -5 27 -9 53 -8 88 2 431 -35 477 -52 60 -21 95
-107 95 -232 0 -102 -16 -174 -43 -193 -24 -16 -176 -20 -319 -7 -85 8 -107
23 -108 73 0 66 -40 129 -95 156 -59 28 -119 67 -170 112 -69 60 -81 98 -43
138 18 19 32 23 84 23 35 0 66 -4 69 -10z m3409 -2660 c96 -27 168 -73 216
-138 45 -61 63 -114 58 -175 -3 -38 -6 -43 -38 -54 -19 -7 -80 -12 -135 -12
-105 -1 -210 21 -284 58 -56 29 -151 107 -177 145 -31 45 -22 70 41 122 89 72
193 90 319 54z m-3931 -196 c58 -30 125 -84 156 -126 17 -23 31 -45 31 -49 0
-4 -34 -36 -76 -70 -89 -73 -131 -144 -121 -206 6 -37 40 -107 80 -166 13 -19
39 -66 58 -103 30 -61 34 -78 34 -144 -1 -95 -24 -147 -138 -313 -89 -128
-127 -172 -157 -182 -25 -8 -73 18 -164 88 -84 64 -106 84 -106 97 0 5 43 44
95 87 119 98 139 132 133 236 -3 67 -8 80 -74 197 -86 155 -97 188 -92 276 5
91 44 173 133 282 93 113 135 133 208 96z m2880 -9 c97 -29 199 -125 251 -234
27 -57 31 -79 34 -161 4 -112 -13 -168 -81 -271 -67 -99 -71 -52 40 -411 25
-80 44 -152 41 -160 -8 -19 -172 -72 -200 -64 -18 5 -39 41 -95 158 -40 84
-80 158 -88 163 -12 7 -20 5 -31 -10 -17 -21 -15 -76 6 -170 22 -102 -4 -124
-149 -132 -73 -4 -105 -2 -116 7 -13 11 -15 91 -15 650 0 350 3 640 7 643 14
14 346 7 396 -8z m-5431 -18 c11 -17 9 -219 -2 -237 -7 -12 -46 -16 -207 -20
l-198 -5 -2 -99 c-3 -138 -3 -138 111 -135 50 2 97 -1 104 -5 17 -10 17 -237
0 -254 -8 -8 -47 -12 -109 -12 -79 0 -98 -3 -103 -16 -8 -20 -8 -143 0 -182 9
-46 40 -52 224 -45 122 5 163 3 175 -7 12 -10 15 -36 15 -129 0 -64 -4 -123
-10 -131 -11 -18 -27 -18 -388 -6 -247 8 -274 10 -282 27 -6 11 -10 258 -10
638 0 526 2 621 14 628 24 13 659 4 668 -10z m1475 11 c4 -7 10 -222 13 -478
l5 -465 60 -12 c33 -7 74 -12 90 -10 29 2 30 5 39 62 10 63 14 656 6 808 -4
71 -2 89 10 97 8 6 75 9 150 8 l135 -3 -4 -275 c-2 -151 -9 -439 -15 -640
l-11 -365 -40 -13 c-22 -7 -75 -18 -119 -23 -75 -9 -80 -9 -103 12 l-23 23
-60 -22 c-59 -21 -60 -21 -115 -2 -137 47 -246 130 -265 201 -15 56 -42 1080
-28 1096 15 18 263 18 275 1z m2721 0 c9 -9 12 -127 12 -468 0 -530 -10 -486
110 -492 l75 -3 13 85 c10 64 12 180 8 475 -5 298 -3 394 6 403 14 14 245 17
267 3 12 -8 13 -87 8 -528 -4 -285 -10 -569 -14 -632 l-6 -113 -31 -13 c-17
-7 -71 -18 -120 -25 -87 -12 -90 -12 -107 9 -20 25 -35 26 -82 6 -52 -22 -85
-19 -165 14 -122 51 -199 115 -220 183 -6 18 -13 157 -17 308 -3 151 -10 388
-14 525 -5 161 -5 254 2 263 13 17 258 17 275 0z m-718 -13 c11 -14 34 -124
90 -430 11 -60 25 -130 30 -155 6 -25 28 -139 50 -255 21 -115 44 -232 50
-260 21 -96 24 -146 9 -156 -8 -5 -69 -9 -135 -9 -98 0 -124 3 -135 16 -7 8
-17 66 -23 127 -6 62 -15 118 -19 125 -13 19 -191 17 -207 -3 -10 -12 -48
-172 -50 -207 0 -4 -10 -16 -22 -28 -19 -18 -35 -20 -135 -20 -87 0 -115 3
-119 14 -4 11 32 225 66 391 9 42 54 291 90 500 5 28 16 86 24 130 9 44 21
107 28 140 19 102 3 95 212 95 151 0 186 -3 196 -15z m-2818 -25 c171 -51 319
-167 385 -300 67 -135 83 -378 35 -512 -66 -184 -227 -325 -420 -369 -111 -25
-404 -41 -432 -24 -16 10 -14 1200 3 1213 23 19 52 21 204 17 118 -3 169 -9
225 -25z m6941 15 c91 -23 148 -55 207 -115 80 -80 111 -145 158 -343 17 -67
15 -283 -3 -359 -61 -266 -180 -406 -385 -453 -66 -15 -227 -12 -290 5 -103
28 -200 101 -268 202 -45 66 -93 83 -242 83 -206 0 -254 -39 -386 -310 -49
-102 -100 -192 -121 -216 -67 -74 -181 -114 -256 -90 -44 15 -92 68 -108 119
-19 64 27 379 100 683 45 187 70 297 82 354 18 91 25 94 103 51 43 -24 97 -43
158 -56 115 -25 118 -26 118 -44 0 -8 -26 -75 -59 -148 -32 -73 -107 -245
-167 -381 -86 -196 -119 -260 -157 -305 -42 -50 -47 -62 -45 -97 3 -37 5 -40
36 -43 72 -7 138 68 217 248 57 132 78 169 122 216 102 109 173 136 373 138
138 1 145 2 144 21 -1 11 -7 58 -14 105 -22 158 5 317 83 490 53 116 134 197
240 236 52 19 82 23 182 23 76 1 142 -4 178 -14z m-1412 -98 c129 -86 271
-127 439 -127 46 0 62 -4 67 -16 16 -42 -93 -117 -196 -135 -169 -30 -365 75
-420 224 -29 79 -28 117 4 117 6 0 54 -28 106 -63z"/>
<path d="M6554 6430 c-6 -25 -10 -29 -30 -24 -16 4 -43 -3 -79 -22 -65 -32
-75 -43 -84 -87 -4 -19 -13 -32 -22 -32 -9 0 -27 -8 -42 -18 -14 -9 -35 -17
-45 -17 -27 0 -65 -39 -57 -59 15 -36 23 -70 17 -75 -3 -3 -20 -6 -39 -6 -27
0 -35 5 -43 25 -9 25 -26 31 -45 17 -16 -11 -45 -68 -45 -88 0 -16 -1 -16 -18
-1 -10 10 -23 17 -29 17 -13 0 -38 -37 -46 -68 -6 -25 15 -111 37 -152 8 -14
17 -42 21 -64 5 -25 10 -34 15 -25 11 20 32 217 25 229 -3 6 -2 10 2 10 5 0
23 -29 41 -65 19 -36 38 -65 43 -65 5 0 9 28 10 63 1 34 4 72 8 85 5 21 9 18
36 -34 17 -32 36 -59 43 -62 12 -4 16 3 27 51 7 35 24 25 49 -28 22 -46 40
-36 59 33 9 31 23 66 31 77 15 19 17 19 30 3 23 -30 33 -20 41 40 3 31 11 72
18 90 10 28 15 32 38 27 25 -6 29 -1 57 59 41 87 62 85 62 -4 0 -35 22 -71 33
-53 16 30 49 193 43 216 -7 30 -41 37 -75 15 -14 -9 -23 -8 -42 5 -32 23 -39
21 -45 -13z"/>
<path d="M5835 5930 c-8 -16 -15 -38 -15 -50 0 -27 -12 -25 -38 5 -26 30 -57
32 -72 5 -15 -28 3 -86 82 -260 l20 -44 14 24 c7 14 13 49 14 78 0 57 10 66
29 26 19 -43 35 -22 49 67 14 93 10 134 -15 161 -24 26 -50 22 -68 -12z"/>
<path d="M5623 5788 c4 -28 11 -54 16 -58 6 -3 13 -25 17 -48 4 -26 12 -42 20
-42 11 0 14 17 14 70 0 82 -19 130 -52 130 -19 0 -20 -4 -15 -52z"/>
<path d="M5515 5800 c-9 -15 3 -89 20 -120 l13 -25 7 25 c3 14 2 48 -2 75 -8
48 -24 67 -38 45z"/>
<path d="M5410 5707 c0 -13 6 -32 14 -42 13 -18 14 -18 24 1 12 24 -2 64 -23
64 -9 0 -15 -9 -15 -23z"/>
<path d="M6425 5373 c2 -21 10 -94 16 -162 13 -154 19 -171 58 -171 19 0 35 8
45 22 10 13 27 23 43 23 24 1 28 6 31 36 4 43 -16 147 -35 177 -17 28 -43 30
-36 2 15 -59 -66 25 -90 93 -4 9 -13 17 -22 17 -12 0 -14 -8 -10 -37z"/>
<path d="M6170 5380 c0 -10 4 -29 9 -42 14 -37 55 -199 66 -262 5 -32 12 -40
45 -55 26 -10 43 -25 49 -43 13 -37 44 -36 71 2 20 28 21 38 14 120 -3 50 -11
93 -17 97 -6 3 -20 -6 -32 -20 -11 -15 -25 -27 -30 -27 -6 0 -20 24 -33 53
-41 94 -57 121 -91 159 -37 42 -51 47 -51 18z"/>
<path d="M6663 5265 c3 -20 17 -61 32 -92 20 -43 28 -54 37 -45 9 9 9 25 0 68
-13 65 -35 104 -59 104 -12 0 -14 -7 -10 -35z"/>
<path d="M6035 5200 c-8 -13 5 -112 18 -128 7 -9 6 -25 -2 -53 -15 -49 -7 -77
26 -90 36 -14 50 -11 72 12 19 20 20 20 46 3 26 -17 28 -17 41 1 24 33 16 80
-27 159 -30 55 -46 76 -61 76 -18 0 -19 -4 -13 -55 4 -30 5 -55 1 -55 -8 0
-46 76 -46 93 0 14 -30 47 -43 47 -3 0 -9 -4 -12 -10z"/>
<path d="M5662 5056 c4 -107 14 -136 48 -136 37 0 36 93 -3 187 -36 86 -50 71
-45 -51z"/>
<path d="M5798 5044 c5 -80 14 -114 33 -114 5 0 12 7 16 15 8 23 -17 133 -37
158 -17 20 -17 17 -12 -59z"/>
<path d="M5924 5105 c-4 -8 -4 -47 -2 -85 5 -87 21 -108 70 -93 28 8 33 14 31
37 -1 16 -8 36 -16 45 -7 9 -21 37 -31 64 -18 47 -41 61 -52 32z"/>
<path d="M5367 5093 c-11 -10 -8 -61 3 -68 6 -4 10 10 10 34 0 42 -2 46 -13
34z"/>
<path d="M5545 5047 c-4 -13 -5 -43 -3 -68 2 -36 6 -44 23 -44 15 0 21 8 23
34 5 51 -7 101 -23 101 -8 0 -17 -10 -20 -23z"/>
<path d="M5446 5009 c-10 -52 17 -70 34 -23 7 19 7 31 -1 40 -18 21 -26 17
-33 -17z"/>
<path d="M6647 3403 c-11 -10 -8 -371 3 -378 15 -9 81 29 119 69 30 31 35 44
39 95 5 74 -14 116 -80 176 -49 44 -67 52 -81 38z"/>
<path d="M4635 3318 c-2 -7 -18 -66 -35 -131 -31 -124 -38 -215 -18 -235 16
-16 132 -16 146 1 7 8 7 25 1 52 -6 22 -22 103 -37 179 -25 127 -44 171 -57
134z"/>
<path d="M1905 3297 c-3 -7 -4 -152 -3 -322 3 -351 0 -338 81 -284 79 52 139
177 139 291 1 123 -63 250 -156 307 -38 24 -55 26 -61 8z"/>
<path d="M8723 3309 c-80 -39 -138 -128 -154 -234 -24 -154 64 -334 187 -381
53 -20 94 -14 152 25 55 36 83 78 111 164 26 82 28 141 6 231 -26 109 -62 164
-132 204 -36 19 -122 15 -170 -9z"/>
<path d="M9211 7956 c-21 -22 -22 -27 -10 -66 33 -110 207 -204 253 -138 55
79 -64 228 -182 228 -28 0 -45 -7 -61 -24z"/>
<path d="M8793 7366 c-17 -8 -34 -24 -38 -35 -16 -50 39 -128 114 -165 40 -19
64 -20 94 -5 30 16 37 28 37 67 0 96 -120 176 -207 138z"/>
</g>
</svg>
